<?xml version="1.0" encoding="UTF-8"?>
<svg id="Calque_2" data-name="Calque 2" xmlns="http://www.w3.org/2000/svg" viewBox="0 0 318.9 300.33">
  <defs>
    <style>
      .cls-1 {
        fill: #171e36;
      }
    </style>
  </defs>
  <g id="Calque_1-2" data-name="Calque 1">
    <path class="cls-1" d="M207.08,269.73l-46.91-27.83-99.01,58.36-61.16-.07,21.48-47.48,22.8-51.1,22.03-49.91,40.37-91.16L133.86.11l54.47-.11,17.23,41.1,44.02,100.41,20.59,47.34,48.72,111.48-59.42-.07-17.79-10.24-34.61-20.29ZM200.4,208.1c9.21,5.49,16.55,10.65,27.3,15.29l-18.99-44.96-28.11-66.65c-6.51-15.44-11.57-30.22-20.1-46.55l-49.85,113.1c-6.72,15.24-12.97,29.25-19.21,46.07l63.97-37.29c1.66-.97,5.09-2.79,6.65-1.86l38.33,22.84Z"/>
  </g>
</svg>